<svg xmlns="http://www.w3.org/2000/svg" xmlns:xlink="http://www.w3.org/1999/xlink" fill="none" version="1.1" width="1323.29248046875" height="1312.0006103515625" viewBox="0 0 1323.29248046875 1312.0006103515625"><defs><mask id="master_svg0_0_3839" style="mask-type:alpha" maskUnits="userSpaceOnUse"><g transform="matrix(0.9267033338546753,-0.3757937550544739,0.3757937550544739,0.9267033338546753,-69.13524884237643,226.98065109860957)"><path d="M994.5369236189063,962.4743298339844C1178.4329236189062,962.4743298339844,1283.1919236189062,740.9283298339844,1312.5839236189063,630.1553298339843C1318.8699236189063,610.9573298339844,1327.6709236189063,557.3713298339844,1312.5839236189063,496.61632983398437C1293.7249236189061,420.67232983398435,1140.3079236189062,462.46732983398437,1078.1259236189062,439.0213298339844C1015.9439236189062,415.57632983398435,958.8579236189062,348.80652983398437,865.5849236189063,303.95372983398437C772.3119236189061,259.10092983398437,697.8969236189062,335.04482983398435,696.3679236189062,429.84732983398436C694.8389236189062,524.6493298339844,523.5825236189062,473.1713298339844,550.0863736189061,678.0663298339844C576.5903236189062,882.9623298339844,764.6659236189062,962.4743298339844,994.5369236189063,962.4743298339844C994.5369236189063,962.4743298339844,994.5369236189063,962.4743298339844,994.5369236189063,962.4743298339844Z" fill="#FFFFFF" fill-opacity="1"/></g></mask></defs><g transform="matrix(0.8005268573760986,0.5992968678474426,-0.5992968678474426,0.8005268573760986,109.17168515481899,-327.995034372987)" mask="url(#master_svg0_0_3839)"><g><g><rect x="403.3507292379509" y="184.81346130371094" width="1256.54736328125" height="8.35840892791748" rx="0" fill="#25356A" fill-opacity="0.05000000074505806"/></g><g><rect x="403.3498077392578" y="207.10283279418945" width="1256.54736328125" height="8.35840892791748" rx="0" fill="#25356A" fill-opacity="0.05000000074505806"/></g><g><rect x="403.3502043840417" y="229.3915901184082" width="1256.54736328125" height="8.35840892791748" rx="0" fill="#25356A" fill-opacity="0.05000000074505806"/></g><g><rect x="403.3498077392578" y="251.68099212646484" width="1256.54736328125" height="8.35840892791748" rx="0" fill="#25356A" fill-opacity="0.05000000074505806"/></g><g><rect x="403.3498077392578" y="273.97008514404297" width="1256.54736328125" height="8.35840892791748" rx="0" fill="#25356A" fill-opacity="0.05000000074505806"/></g><g><rect x="403.35024204300134" y="296.2588424682617" width="1256.54736328125" height="8.35840892791748" rx="0" fill="#25356A" fill-opacity="0.05000000074505806"/></g><g><rect x="403.3498077392578" y="318.5482482910156" width="1256.54736328125" height="8.35840892791748" rx="0" fill="#25356A" fill-opacity="0.05000000074505806"/></g><g><rect x="403.35026018341887" y="340.8370056152344" width="1256.54736328125" height="8.35840892791748" rx="0" fill="#25356A" fill-opacity="0.05000000074505806"/></g><g><rect x="403.35026925362763" y="363.12608337402344" width="1256.54736328125" height="8.35840892791748" rx="0" fill="#25356A" fill-opacity="0.05000000074505806"/></g><g><rect x="403.3498077392578" y="385.4154968261719" width="1256.54736328125" height="8.35840892791748" rx="0" fill="#25356A" fill-opacity="0.05000000074505806"/></g><g><rect x="403.3498077392578" y="407.70457458496094" width="1256.54736328125" height="8.35840892791748" rx="0" fill="#25356A" fill-opacity="0.05000000074505806"/></g><g><rect x="403.3498077392578" y="429.99366760253906" width="1256.54736328125" height="8.35840892791748" rx="0" fill="#25356A" fill-opacity="0.05000000074505806"/></g><g><rect x="403.3498077392578" y="452.28273010253906" width="1256.54736328125" height="8.35840892791748" rx="0" fill="#25356A" fill-opacity="0.05000000074505806"/></g><g><rect x="403.3498077392578" y="474.5718231201172" width="1256.54736328125" height="8.35840892791748" rx="0" fill="#25356A" fill-opacity="0.05000000074505806"/></g><g><rect x="403.3498077392578" y="496.8609161376953" width="1256.54736328125" height="8.35840892791748" rx="0" fill="#25356A" fill-opacity="0.05000000074505806"/></g><g><rect x="403.3498077392578" y="519.1499786376953" width="1256.54736328125" height="8.35840892791748" rx="0" fill="#25356A" fill-opacity="0.05000000074505806"/></g><g><rect x="403.3499160990759" y="541.4390716552734" width="1256.54736328125" height="8.35840892791748" rx="0" fill="#25356A" fill-opacity="0.05000000074505806"/></g><g><rect x="403.34991994511074" y="563.7281341552734" width="1256.54736328125" height="8.35840892791748" rx="0" fill="#25356A" fill-opacity="0.05000000074505806"/></g><g><rect x="403.3499394636601" y="586.0172271728516" width="1256.54736328125" height="8.35840892791748" rx="0" fill="#25356A" fill-opacity="0.05000000074505806"/></g><g><rect x="403.34994330968766" y="608.3063201904297" width="1256.54736328125" height="8.35840892791748" rx="0" fill="#25356A" fill-opacity="0.05000000074505806"/></g><g><rect x="403.349968052411" y="630.5954132080078" width="1256.54736328125" height="8.35840892791748" rx="0" fill="#25356A" fill-opacity="0.05000000074505806"/></g><g><rect x="403.34992634791706" y="655.6706695556641" width="1256.54736328125" height="8.35840892791748" rx="0" fill="#25356A" fill-opacity="0.05000000074505806"/></g><g><rect x="403.34992251865333" y="680.7459869384766" width="1256.54736328125" height="8.35840892791748" rx="0" fill="#25356A" fill-opacity="0.05000000074505806"/></g><g><rect x="403.3498077392578" y="705.8210906982422" width="1256.54736328125" height="8.35840892791748" rx="0" fill="#25356A" fill-opacity="0.05000000074505806"/></g><g><rect x="403.3498077392578" y="730.8963470458984" width="1256.54736328125" height="8.35840892791748" rx="0" fill="#25356A" fill-opacity="0.05000000074505806"/></g><g><rect x="403.3501473708602" y="755.9712982177734" width="1256.54736328125" height="8.35840892791748" rx="0" fill="#25356A" fill-opacity="0.05000000074505806"/></g><g><rect x="403.35012525701313" y="781.0466156005859" width="1256.54736328125" height="8.35840892791748" rx="0" fill="#25356A" fill-opacity="0.05000000074505806"/></g></g></g></svg>