<svg width="146.854904" height="146.854904" viewBox="0 0 146.855 146.855" fill="none" xmlns="http://www.w3.org/2000/svg" xmlns:xlink="http://www.w3.org/1999/xlink">
	<desc>
			Created with Pixso.
	</desc>
	<defs>
		<filter id="filter_26_1174_dd" x="34.099365" y="53.544861" width="97.096695" height="62.293320" filterUnits="userSpaceOnUse" color-interpolation-filters="sRGB">
			<feFlood flood-opacity="0" result="BackgroundImageFix"/>
			<feGaussianBlur in="BackgroundImage" stdDeviation="4.37146"/>
			<feComposite in2="SourceAlpha" operator="in" result="effect_backgroundBlur_1"/>
			<feBlend mode="normal" in="SourceGraphic" in2="effect_backgroundBlur_1" result="shape"/>
		</filter>
		<clipPath id="clip26_1058">
			<rect id="Folder" width="146.854904" height="146.854904" fill="white" fill-opacity="0"/>
		</clipPath>
		<linearGradient x1="54.022839" y1="49.241798" x2="114.046371" y2="99.855156" id="paint_linear_26_1173_0" gradientUnits="userSpaceOnUse">
			<stop stop-color="#7FC0FB"/>
			<stop offset="1.000000" stop-color="#4088F4"/>
		</linearGradient>
		<linearGradient x1="29.181473" y1="57.994385" x2="137.375137" y2="111.388657" id="paint_linear_26_1174_0" gradientUnits="userSpaceOnUse">
			<stop stop-color="#FFFFFF"/>
			<stop offset="0.765625" stop-color="#FFFFFF" stop-opacity="0.000000"/>
		</linearGradient>
		<linearGradient x1="39.161293" y1="36.713692" x2="66.084694" y2="44.668343" id="paint_linear_26_1175_0" gradientUnits="userSpaceOnUse">
			<stop stop-color="#FFFFFF"/>
			<stop offset="1.000000" stop-color="#FFFFFF" stop-opacity="0.000000"/>
		</linearGradient>
		<linearGradient x1="37.325603" y1="38.549381" x2="50.492157" y2="43.709045" id="paint_linear_26_1175_1" gradientUnits="userSpaceOnUse">
			<stop stop-color="#FFFFFF"/>
			<stop offset="1.000000" stop-color="#FFFFFF" stop-opacity="0.000000"/>
		</linearGradient>
	</defs>
	<g clip-path="url(#clip26_1058)">
		<path id="Body" d="M38.09 30.59L65.65 30.59C67.24 30.59 68.03 30.59 68.78 30.77C69.42 30.92 70.03 31.17 70.59 31.5C71.26 31.89 71.83 32.44 72.97 33.54L73.65 34.19C74.79 35.3 75.37 35.85 76.03 36.24C76.59 36.57 77.2 36.82 77.84 36.97C78.59 37.15 79.38 37.15 80.97 37.15L108.78 37.15C112.52 37.15 114.38 37.15 115.8 37.89C117 38.51 117.98 39.48 118.6 40.68C119.34 42.1 119.34 43.97 119.34 47.7L119.34 110.56C119.34 112.42 119.34 113.36 118.97 114.07C118.66 114.67 118.17 115.15 117.57 115.46C116.86 115.83 115.93 115.83 114.06 115.83L37.04 115.83C33.68 115.83 32 115.83 30.72 115.17C29.64 114.61 28.76 113.73 28.2 112.65C27.54 111.37 27.54 109.69 27.54 106.33L27.54 41.15C27.54 37.41 27.54 35.55 28.28 34.12C28.9 32.93 29.87 31.95 31.07 31.33C32.49 30.59 34.36 30.59 38.09 30.59Z" fill="url(#paint_linear_26_1173_0)" fill-opacity="1.000000" fill-rule="evenodd"/>
		<g filter="url(#filter_26_1174_dd)">
			<path id="Shape 1" d="M57.22 53.54L121.25 53.54C126.37 53.54 128.93 53.54 130.31 55.17C130.34 55.22 130.38 55.26 130.41 55.3C131.73 56.98 131.2 59.49 130.14 64.5L120.86 108.62C120.24 111.56 119.93 113.03 118.55 114.77C118.53 114.8 118.49 114.82 118.46 114.85C117.21 115.83 115.46 115.83 111.96 115.83L34.09 115.83C37.49 112.15 37.49 108.46 40.88 97.39C43.61 88.48 50.31 65.46 52.81 56.85C53.37 54.89 55.17 53.54 57.22 53.54Z" fill="#B9DDFF" fill-opacity="0.600000" fill-rule="evenodd"/>
			<path id="Shape 1" d="M57.22 53.54L121.25 53.54C126.37 53.54 128.93 53.54 130.31 55.17C130.34 55.22 130.38 55.26 130.41 55.3C131.73 56.98 131.2 59.49 130.14 64.5L120.86 108.62C120.24 111.56 119.93 113.03 118.55 114.77C118.53 114.8 118.49 114.82 118.46 114.85C117.21 115.83 115.46 115.83 111.96 115.83L34.09 115.83C34.28 115.63 34.46 115.43 34.63 115.22C37.5 111.72 37.67 107.85 40.88 97.39C43.61 88.48 50.31 65.46 52.81 56.85C53.37 54.89 55.17 53.54 57.22 53.54ZM35.35 115.22L111.96 115.22Q116.99 115.22 118.08 114.37Q118.09 114.36 118.11 114.34Q119.37 112.7 120.26 108.49L129.55 64.37Q131.07 57.14 129.93 55.68Q129.89 55.62 129.84 55.57Q128.65 54.15 121.25 54.15L57.22 54.15Q55.72 54.15 54.77 54.87Q53.81 55.59 53.39 57.02L47.43 77.47L41.46 97.57Q40.47 100.8 39.19 105.56Q37.39 112.23 35.35 115.22Z" fill="url(#paint_linear_26_1174_0)" fill-opacity="1.000000" fill-rule="evenodd"/>
		</g>
		<path id="Shape 2" d="M40.65 40.43C40.65 38.61 42.12 37.15 43.93 37.15L57.04 37.15C58.86 37.15 60.32 38.61 60.32 40.43L60.32 40.43C60.32 42.24 58.86 43.7 57.04 43.7L43.93 43.7C42.12 43.7 40.65 42.24 40.65 40.43L40.65 40.43Z" fill="url(#paint_linear_26_1175_0)" fill-opacity="0.900000" fill-rule="nonzero"/>
		<path id="Shape 2" d="M43.93 37.15C42.12 37.15 40.65 38.61 40.65 40.43C40.65 42.24 42.12 43.7 43.93 43.7L57.04 43.7C58.86 43.7 60.32 42.24 60.32 40.43C60.32 38.61 58.86 37.15 57.04 37.15L43.93 37.15ZM43.93 37.64L57.04 37.64Q57.36 37.64 57.67 37.71Q57.9 37.76 58.13 37.86Q58.36 37.95 58.57 38.09Q58.81 38.25 59.02 38.45Q59.22 38.66 59.38 38.9Q59.52 39.11 59.61 39.34Q59.71 39.57 59.76 39.8Q59.83 40.11 59.83 40.43Q59.83 40.75 59.76 41.05Q59.71 41.28 59.61 41.51Q59.52 41.74 59.38 41.95Q59.22 42.19 59.02 42.4Q58.81 42.6 58.57 42.76Q58.36 42.9 58.13 43Q57.9 43.09 57.67 43.15Q57.36 43.21 57.04 43.21L43.93 43.21Q43.61 43.21 43.31 43.15Q43.07 43.09 42.84 43Q42.61 42.9 42.4 42.76Q42.16 42.6 41.96 42.4Q41.75 42.19 41.59 41.95Q41.46 41.74 41.36 41.51Q41.26 41.28 41.21 41.05Q41.14 40.75 41.14 40.43Q41.14 40.11 41.21 39.8Q41.26 39.57 41.36 39.34Q41.46 39.11 41.59 38.9Q41.75 38.66 41.96 38.45Q42.16 38.25 42.4 38.09Q42.61 37.95 42.84 37.86Q43.07 37.76 43.31 37.71Q43.61 37.64 43.93 37.64Z" fill="url(#paint_linear_26_1175_1)" fill-opacity="1.000000" fill-rule="evenodd"/>
	</g>
</svg>
