<svg xmlns="http://www.w3.org/2000/svg" xmlns:xlink="http://www.w3.org/1999/xlink" fill="none" version="1.1" width="24" height="24" viewBox="0 0 24 24"><defs><clipPath id="master_svg0_0_663"><rect x="0" y="0" width="24" height="24" rx="0"/></clipPath></defs><g clip-path="url(#master_svg0_0_663)"><g><path d="M9.5625,11.25C9.5625,11.25,3.1875,11.25,3.1875,11.25C2.7399500000000003,11.25,2.310725,11.07221,1.994257,10.75574C1.67779,10.43927,1.5000000000000004,10.01005,1.5,9.5625C1.5,9.5625,1.5,3.1875,1.5,3.1875C1.5,2.7399500000000003,1.67779,2.310725,1.994257,1.994257C2.310725,1.67779,2.7399500000000003,1.5000000000000007,3.1875,1.5C3.1875,1.5,9.5625,1.5,9.5625,1.5C10.01005,1.5000000000000004,10.43927,1.67779,10.75574,1.994257C11.07221,2.310725,11.25,2.7399500000000003,11.25,3.1875C11.25,3.1875,11.25,9.5625,11.25,9.5625C11.25,10.01005,11.07221,10.43927,10.75574,10.75574C10.43927,11.07221,10.01005,11.25,9.5625,11.25C9.5625,11.25,9.5625,11.25,9.5625,11.25Z" fill="#242424" fill-opacity="1"/></g><g><path d="M20.8125,11.25C20.8125,11.25,14.4375,11.25,14.4375,11.25C13.98995,11.25,13.560725,11.07221,13.244257,10.75574C12.92779,10.43927,12.75,10.01005,12.75,9.5625C12.75,9.5625,12.75,3.1875,12.75,3.1875C12.75,2.7399500000000003,12.92779,2.310725,13.244257,1.994257C13.560725,1.67779,13.98995,1.5000000000000007,14.4375,1.5C14.4375,1.5,20.8125,1.5,20.8125,1.5C21.26005,1.5000000000000004,21.68927,1.67779,22.00574,1.994257C22.32221,2.310725,22.5,2.7399500000000003,22.5,3.1875C22.5,3.1875,22.5,9.5625,22.5,9.5625C22.5,10.01005,22.32221,10.43927,22.00574,10.75574C21.68927,11.07221,21.26005,11.25,20.8125,11.25C20.8125,11.25,20.8125,11.25,20.8125,11.25Z" fill="#242424" fill-opacity="1"/></g><g><path d="M9.5625,22.5C9.5625,22.5,3.1875,22.5,3.1875,22.5C2.7399500000000003,22.5,2.310725,22.32221,1.994257,22.00574C1.67779,21.68927,1.5000000000000004,21.26005,1.5,20.8125C1.5,20.8125,1.5,14.4375,1.5,14.4375C1.5,13.98995,1.67779,13.560725,1.994257,13.244257C2.310725,12.92779,2.7399500000000003,12.75,3.1875,12.75C3.1875,12.75,9.5625,12.75,9.5625,12.75C10.01005,12.75,10.43927,12.92779,10.75574,13.244257C11.07221,13.560725,11.25,13.98995,11.25,14.4375C11.25,14.4375,11.25,20.8125,11.25,20.8125C11.25,21.26005,11.07221,21.68927,10.75574,22.00574C10.43927,22.32221,10.01005,22.5,9.5625,22.5C9.5625,22.5,9.5625,22.5,9.5625,22.5Z" fill="#242424" fill-opacity="1"/></g><g><path d="M20.8125,22.5C20.8125,22.5,14.4375,22.5,14.4375,22.5C13.98995,22.5,13.560725,22.32221,13.244257,22.00574C12.92779,21.68927,12.75,21.26005,12.75,20.8125C12.75,20.8125,12.75,14.4375,12.75,14.4375C12.75,13.98995,12.92779,13.560725,13.244257,13.244257C13.560725,12.92779,13.98995,12.75,14.4375,12.75C14.4375,12.75,20.8125,12.75,20.8125,12.75C21.26005,12.75,21.68927,12.92779,22.00574,13.244257C22.32221,13.560725,22.5,13.98995,22.5,14.4375C22.5,14.4375,22.5,20.8125,22.5,20.8125C22.5,21.26005,22.32221,21.68927,22.00574,22.00574C21.68927,22.32221,21.26005,22.5,20.8125,22.5C20.8125,22.5,20.8125,22.5,20.8125,22.5Z" fill="#242424" fill-opacity="1"/></g></g></svg>