<svg width="146.854919" height="146.854904" viewBox="0 0 146.855 146.855" fill="none" xmlns="http://www.w3.org/2000/svg" xmlns:xlink="http://www.w3.org/1999/xlink">
	<desc>
			Created with Pixso.
	</desc>
	<defs>
		<filter id="filter_26_201_dd" x="30.824768" y="39.353333" width="86.042267" height="80.898956" filterUnits="userSpaceOnUse" color-interpolation-filters="sRGB">
			<feFlood flood-opacity="0" result="BackgroundImageFix"/>
			<feGaussianBlur in="BackgroundImage" stdDeviation="4.10255"/>
			<feComposite in2="SourceAlpha" operator="in" result="effect_backgroundBlur_1"/>
			<feBlend mode="normal" in="SourceGraphic" in2="effect_backgroundBlur_1" result="shape"/>
		</filter>
		<clipPath id="clip26_199">
			<rect id="Security" width="146.854904" height="146.854904" fill="white" fill-opacity="0"/>
		</clipPath>
		<linearGradient x1="53.346607" y1="42.921345" x2="124.322067" y2="115.627945" id="paint_linear_26_200_0" gradientUnits="userSpaceOnUse">
			<stop stop-color="#75EDA1"/>
			<stop offset="1.000000" stop-color="#349256"/>
		</linearGradient>
		<linearGradient x1="32.430527" y1="47.727768" x2="147.691711" y2="115.024582" id="paint_linear_26_201_0" gradientUnits="userSpaceOnUse">
			<stop stop-color="#FFFFFF"/>
			<stop offset="0.734375" stop-color="#FFFFFF" stop-opacity="0.000000"/>
		</linearGradient>
		<linearGradient x1="60.577606" y1="75.263107" x2="127.886116" y2="83.217758" id="paint_linear_26_202_0" gradientUnits="userSpaceOnUse">
			<stop stop-color="#FFFFFF"/>
			<stop offset="1.000000" stop-color="#FFFFFF" stop-opacity="0.000000"/>
		</linearGradient>
		<linearGradient x1="55.070549" y1="67.920357" x2="82.605835" y2="77.098785" id="paint_linear_26_202_1" gradientUnits="userSpaceOnUse">
			<stop stop-color="#FFFFFF"/>
			<stop offset="1.000000" stop-color="#FFFFFF" stop-opacity="0.000000"/>
		</linearGradient>
	</defs>
	<rect id="Security" width="146.854904" height="146.854904" fill="#FFFFFF" fill-opacity="0"/>
	<g clip-path="url(#clip26_199)">
		<path id="Body" d="M110.72 38.29C109.53 82.25 82.37 95.29 75.44 97.91C74.41 98.3 73.28 98.3 72.24 97.91C65.31 95.29 38.15 82.25 36.96 38.29C36.91 36.42 37.88 34.68 39.48 33.69C60.52 20.59 87.17 20.59 108.21 33.69C109.8 34.68 110.77 36.42 110.72 38.29Z" fill="url(#paint_linear_26_200_0)" fill-opacity="1.000000" fill-rule="evenodd"/>
		<g filter="url(#filter_26_201_dd)">
			<path id="Shape 1" d="M37.2 49.08L33.86 50.99C31.95 52.08 30.75 54.15 30.82 56.36C32.39 104 65.04 117.55 72.38 120.01C73.35 120.33 74.33 120.33 75.3 120.01C82.64 117.55 115.29 104 116.86 56.36C116.93 54.15 115.73 52.08 113.82 50.99L110.48 49.08C87.78 36.11 59.91 36.11 37.2 49.08Z" fill="#6AE092" fill-opacity="0.600000" fill-rule="nonzero"/>
			<path id="Shape 1" d="M37.2 49.08L33.86 50.99C31.95 52.08 30.75 54.15 30.82 56.36C32.39 104 65.04 117.55 72.38 120.01C73.35 120.33 74.33 120.33 75.3 120.01C82.64 117.55 115.29 104 116.86 56.36C116.93 54.15 115.73 52.08 113.82 50.99L110.48 49.08C87.78 36.11 59.91 36.11 37.2 49.08ZM34.17 51.52L37.51 49.61Q45.95 44.78 55.03 42.37Q64.12 39.96 73.84 39.96Q83.56 39.96 92.65 42.37Q101.73 44.78 110.18 49.61L113.51 51.52Q115.01 52.37 115.69 53.66Q116.3 54.81 116.25 56.31Q115.42 81.58 103.08 98.42Q100.68 101.7 97.84 104.66Q88.79 114.1 77.73 118.47Q76.44 118.98 75.13 119.42Q74.49 119.63 73.84 119.63Q73.2 119.63 72.55 119.42Q71.24 118.98 69.96 118.47Q58.9 114.1 49.84 104.66Q47 101.7 44.6 98.42Q32.26 81.58 31.43 56.31Q31.38 54.81 31.99 53.66Q32.67 52.37 34.17 51.52Z" fill="url(#paint_linear_26_201_0)" fill-opacity="1.000000" fill-rule="evenodd"/>
		</g>
		<path id="Shape 2" d="M95.57 64.88C97.37 66.68 97.37 69.6 95.57 71.41L74.03 92.94C73.16 93.81 71.99 94.3 70.76 94.3C69.54 94.3 68.37 93.81 67.5 92.94L55.19 80.64C53.39 78.83 53.39 75.91 55.19 74.11C57 72.31 59.92 72.31 61.72 74.11L70.76 83.15L89.04 64.88C90.84 63.08 93.76 63.08 95.57 64.88Z" fill="url(#paint_linear_26_202_0)" fill-opacity="0.900000" fill-rule="evenodd"/>
		<path id="Shape 2" d="M70.42 82.81L61.72 74.11C59.92 72.31 57 72.31 55.19 74.11C53.39 75.91 53.39 78.83 55.19 80.64L67.5 92.94C68.37 93.81 69.54 94.3 70.76 94.3C71.99 94.3 73.16 93.81 74.03 92.94L95.57 71.41C97.37 69.6 97.37 66.68 95.57 64.88C93.76 63.08 90.84 63.08 89.04 64.88L71.11 82.81L70.76 83.15L70.42 82.81ZM94.5 64.65Q94.89 64.89 95.22 65.22Q95.55 65.56 95.8 65.95Q95.99 66.25 96.13 66.59Q96.27 66.94 96.34 67.3Q96.43 67.71 96.43 68.14Q96.43 68.57 96.34 68.99Q96.27 69.35 96.13 69.69Q95.99 70.03 95.8 70.34Q95.55 70.73 95.22 71.06L73.68 92.6Q73.39 92.89 73.06 93.11Q72.72 93.34 72.34 93.49Q71.96 93.65 71.57 93.73Q71.17 93.81 70.76 93.81Q70.35 93.81 69.96 93.73Q69.56 93.65 69.19 93.49Q68.81 93.34 68.47 93.11Q68.14 92.89 67.85 92.6L55.54 80.29Q55.21 79.96 54.96 79.57Q54.77 79.26 54.63 78.93Q54.49 78.58 54.42 78.22Q54.33 77.8 54.33 77.37Q54.33 76.94 54.42 76.53Q54.49 76.17 54.63 75.82Q54.77 75.48 54.96 75.18Q55.21 74.79 55.54 74.46Q55.87 74.12 56.26 73.88Q56.56 73.69 56.9 73.55Q57.25 73.41 57.61 73.33Q58.02 73.25 58.46 73.25Q58.89 73.25 59.3 73.33Q59.66 73.41 60.01 73.55Q60.35 73.69 60.65 73.88Q61.04 74.12 61.37 74.46L70.42 83.5Q70.56 83.64 70.76 83.64Q70.97 83.64 71.11 83.5L89.38 65.22Q89.72 64.89 90.11 64.65Q90.41 64.46 90.75 64.32Q91.1 64.18 91.46 64.1Q91.87 64.02 92.3 64.02Q92.73 64.02 93.15 64.1Q93.51 64.18 93.86 64.32Q94.19 64.46 94.5 64.65Z" fill="url(#paint_linear_26_202_1)" fill-opacity="1.000000" fill-rule="evenodd"/>
	</g>
</svg>
